<svg width="80" height="947" viewBox="0 0 80 947" fill="none" xmlns="http://www.w3.org/2000/svg">
<rect width="80" height="947" fill="#1B1D29"/>
<path fill-rule="evenodd" clip-rule="evenodd" d="M40 653C44.9706 653 49 648.971 49 644C49 639.029 44.9706 635 40 635C35.0294 635 31 639.029 31 644C31 648.971 35.0294 653 40 653ZM40 656C46.6274 656 52 650.627 52 644C52 637.373 46.6274 632 40 632C33.3726 632 28 637.373 28 644C28 650.627 33.3726 656 40 656Z" fill="#888991"/>
<path fill-rule="evenodd" clip-rule="evenodd" d="M40 581C44.9706 581 49 576.971 49 572C49 567.029 44.9706 563 40 563C35.0294 563 31 567.029 31 572C31 576.971 35.0294 581 40 581ZM40 584C46.6274 584 52 578.627 52 572C52 565.373 46.6274 560 40 560C33.3726 560 28 565.373 28 572C28 578.627 33.3726 584 40 584Z" fill="white"/>
<path fill-rule="evenodd" clip-rule="evenodd" d="M40 509C44.9706 509 49 504.971 49 500C49 495.029 44.9706 491 40 491C35.0294 491 31 495.029 31 500C31 504.971 35.0294 509 40 509ZM40 512C46.6274 512 52 506.627 52 500C52 493.373 46.6274 488 40 488C33.3726 488 28 493.373 28 500C28 506.627 33.3726 512 40 512Z" fill="#888991"/>
<path fill-rule="evenodd" clip-rule="evenodd" d="M40 437C44.9706 437 49 432.971 49 428C49 423.029 44.9706 419 40 419C35.0294 419 31 423.029 31 428C31 432.971 35.0294 437 40 437ZM40 440C46.6274 440 52 434.627 52 428C52 421.373 46.6274 416 40 416C33.3726 416 28 421.373 28 428C28 434.627 33.3726 440 40 440Z" fill="#888991"/>
<path fill-rule="evenodd" clip-rule="evenodd" d="M40 365C44.9706 365 49 360.971 49 356C49 351.029 44.9706 347 40 347C35.0294 347 31 351.029 31 356C31 360.971 35.0294 365 40 365ZM40 368C46.6274 368 52 362.627 52 356C52 349.373 46.6274 344 40 344C33.3726 344 28 349.373 28 356C28 362.627 33.3726 368 40 368Z" fill="#888991"/>
<path fill-rule="evenodd" clip-rule="evenodd" d="M40 293C44.9706 293 49 288.971 49 284C49 279.029 44.9706 275 40 275C35.0294 275 31 279.029 31 284C31 288.971 35.0294 293 40 293ZM40 296C46.6274 296 52 290.627 52 284C52 277.373 46.6274 272 40 272C33.3726 272 28 277.373 28 284C28 290.627 33.3726 296 40 296Z" fill="#888991"/>
<path fill-rule="evenodd" clip-rule="evenodd" d="M40 221C44.9706 221 49 216.971 49 212C49 207.029 44.9706 203 40 203C35.0294 203 31 207.029 31 212C31 216.971 35.0294 221 40 221ZM40 224C46.6274 224 52 218.627 52 212C52 205.373 46.6274 200 40 200C33.3726 200 28 205.373 28 212C28 218.627 33.3726 224 40 224Z" fill="#888991"/>
<path fill-rule="evenodd" clip-rule="evenodd" d="M40 149C44.9706 149 49 144.971 49 140C49 135.029 44.9706 131 40 131C35.0294 131 31 135.029 31 140C31 144.971 35.0294 149 40 149ZM40 152C46.6274 152 52 146.627 52 140C52 133.373 46.6274 128 40 128C33.3726 128 28 133.373 28 140C28 146.627 33.3726 152 40 152Z" fill="#888991"/>
<path fill-rule="evenodd" clip-rule="evenodd" d="M50.0667 48.8071H43.2C42.611 48.8071 42.1334 48.3295 42.1334 47.7404C42.1334 47.1513 42.1334 42.4 42.1334 42.4H48.3938C48.687 42.4 48.9372 42.1881 48.9856 41.899L49.4095 39.3657C49.4707 38.9999 49.1886 38.6667 48.8177 38.6667H38.4C38.4 38.6667 38.4 45.0894 38.4 47.7404C38.4 50.3914 40.549 52.5404 43.2 52.5404H46.9334V55.3167C45.0862 56.0184 43.5055 56.2667 41.4687 56.2667C36.1509 56.2667 33.2586 53.4809 33.0761 48.2737C33.0213 46.7106 33.0667 45.6048 33.0667 38.6667H25.0241C24.731 38.6667 24.4807 38.8785 24.4324 39.1677L24.0084 41.701C23.9472 42.0668 24.2292 42.4 24.6002 42.4H29.3334L29.3419 48.2737C29.4438 51.7699 30.5514 54.7127 32.562 56.7394C34.6782 58.8725 37.7581 60 41.4687 60C44.595 60 46.9638 59.4833 50.0547 58.0379C50.4288 57.8629 50.6667 57.4859 50.6667 57.0729V49.4071C50.6667 49.0757 50.3981 48.8071 50.0667 48.8071Z" fill="#0085FF"/>
<path fill-rule="evenodd" clip-rule="evenodd" d="M25.8497 34.9333H33.0667V26.9226L38.4 25.034V34.9333H49.6426C49.9358 34.9333 50.186 34.7214 50.2344 34.4323L50.6583 31.899C50.7195 31.5332 50.4374 31.2 50.0665 31.2H42.1334V20.6004C42.1334 20.1862 41.7236 19.8966 41.333 20.0349L29.733 24.1426C29.4935 24.2275 29.3334 24.4541 29.3334 24.7082V31.2H26.2736C25.9805 31.2 25.7302 31.4118 25.6818 31.701L25.258 34.2343C25.1967 34.6001 25.4788 34.9333 25.8497 34.9333Z" fill="#0085FF"/>
</svg>
